<svg id="Layer_1" enable-background="new 0 0 512 512" height="512" viewBox="0 0 512 512" width="512" xmlns="http://www.w3.org/2000/svg"><g><path d="m256 271c-40.348 0-78.123-17.834-103.748-48.364-15.432 9.057-33.143 13.933-51.184 13.933-55.729 0-101.068-45.34-101.068-101.069 0-55.734 45.339-101.077 101.069-101.077 18.041 0 35.753 4.877 51.185 13.934 25.626-30.525 63.4-48.357 103.746-48.357s78.12 17.832 103.746 48.357c15.433-9.057 33.144-13.934 51.185-13.934 55.729 0 101.069 45.343 101.069 101.077 0 55.729-45.34 101.069-101.069 101.069-18.04 0-35.751-4.876-51.183-13.933-25.625 30.53-63.4 48.364-103.748 48.364z" fill="#cdcddc"/><path d="m359.748 222.636c15.432 9.057 33.143 13.933 51.183 13.933 55.729 0 101.069-45.34 101.069-101.069 0-55.734-45.34-101.077-101.069-101.077-18.041 0-35.752 4.877-51.185 13.934-25.626-30.525-63.4-48.357-103.746-48.357v271c40.348 0 78.123-17.834 103.748-48.364z" fill="#b9b9cd"/><path d="m398.392 282.393c-2.322-5.605-7.791-9.26-13.858-9.26h-90.596l25.039-143.081c1.128-6.445-2.052-12.878-7.857-15.896-5.809-3.018-12.899-1.922-17.524 2.703l-208.869 208.868c-4.29 4.29-5.573 10.742-3.252 16.347 2.322 5.605 7.791 9.26 13.858 9.26h90.596l-25.039 143.081c-1.128 6.445 2.052 12.878 7.857 15.896 5.809 3.018 12.899 1.922 17.524-2.703l208.869-208.869c4.29-4.29 5.573-10.741 3.252-16.346z" fill="#fadc5c"/><path d="m398.392 282.393c-2.322-5.605-7.791-9.26-13.858-9.26h-90.596l25.039-143.081c1.128-6.445-2.052-12.878-7.857-15.896-5.809-3.018-12.899-1.922-17.524 2.703l-37.596 37.595v283.425l139.14-139.14c4.29-4.29 5.573-10.741 3.252-16.346z" fill="#fdb442"/></g></svg>